<?xml version="1.0" encoding="UTF-8"?>
<svg id="Calque_1" xmlns="http://www.w3.org/2000/svg" version="1.1" viewBox="0 0 566.93 283.46">
  <!-- Generator: Adobe Illustrator 30.3.0, SVG Export Plug-In . SVG Version: 2.1.3 Build 182)  -->
  <defs>
    <style>
      .st0 {
        isolation: isolate;
      }

      .st1 {
        fill: #fff;
      }

      .st2 {
        fill: #185adb;
      }
    </style>
  </defs>
  <rect class="st1" x="430.41" y="149.25" width="132.27" height="36.73" rx="14.17" ry="14.17"/>
  <path class="st2" d="M454.98,174.98h-7.97l-1.07,3.37h-5.36l7.31-21.46h6.26l7.31,21.46h-5.39l-1.07-3.37h-.01ZM453.5,170.38l-2.52-7.88-2.51,7.88h5.04Z"/>
  <path class="st2" d="M462.49,171.42v-14.53h4.9v14.1c0,1.62.77,3,3.37,3s3.37-1.38,3.37-3v-14.1h4.9v14.53c0,4.6-3.56,7.36-8.27,7.36s-8.27-2.77-8.27-7.36Z"/>
  <path class="st2" d="M497,161.6h-5.52v16.75h-4.9v-16.75h-5.52v-4.73h15.95v4.73h-.01Z"/>
  <path class="st2" d="M519.68,174.8l7.21-7.48c1.26-1.29,2.18-2.55,2.18-3.8,0-1.36-.86-2.27-2.3-2.27s-2.58.98-3.16,2.34l-4.15-2.42c1.38-3.18,4.27-4.69,7.24-4.69,3.84,0,7.26,2.52,7.26,6.84,0,2.58-1.38,4.78-3.35,6.75l-3.56,3.59h7.21v4.73h-14.59v-3.56h.01Z"/>
  <path class="st2" d="M552.52,174.93h-2.15v3.44h-4.97v-3.44h-9.75v-4.54l6.84-13.49h5.27l-6.84,13.49h4.48v-4.6h4.97v4.6h2.15v4.54Z"/>
  <path class="st2" d="M508.15,156.45c-6.16,0-11.17,4.85-11.17,11.17s5,11.17,11.17,11.17,11.17-4.85,11.17-11.17-4.99-11.17-11.17-11.17ZM513.71,170.79c-.06.3-.13.59-.21.88-.02.1-.07.21-.13.3-.14.21-.32.19-.43-.04-.2-.41,0-.82.02-1.25,0-.04.07-.1.11-.14.22-.19.43-.37.75-.63-.04.34-.06.61-.1.89ZM513.94,167c-.32.6-.85,1.01-1.36,1.41-.68.52-.78.85-.56,1.65.03.14.08.27.1.41.1.46-.04.79-.46,1.02-.14.08-.27.17-.41.26.08.13.14.22.19.32.13.29.09.63-.17.76-.4.19-.54.57-.73.9-.21.36-.47.58-.85.69-.3.09-.6.14-.92.19-.39.06-.72-.23-.77-.61,0-.07.02-.14-.02-.18-.54-.6-.43-1.49-.95-2.1-.28-.33-.28-.75-.09-1.11.27-.52.22-.96-.14-1.4-.26-.31-.31-.72-.28-1.12.02-.16-.02-.19-.19-.23-.19-.06-.33-.19-.51-.28-.12-.06-.27-.1-.4-.1-.23,0-.48.06-.71.08-.09,0-.19-.02-.27.02-.59.3-1.01-.04-1.42-.39-.27-.23-.51-.49-.78-.72-.23-.19-.26-.4-.14-.65.06-.11.1-.22.17-.32.12-.22.14-.4-.07-.6-.19-.18-.2-.4-.1-.65.19-.4.47-.71.85-.93.17-.1.24-.22.28-.42.04-.21.2-.4.31-.59.04-.07.12-.13.14-.21.12-.34.36-.47.7-.41.19.02.41,0,.6-.03.56-.09,1.1-.23,1.67-.29.42-.04.6.22.62.78.37.14.73.31,1.13.48.23-.37.39-.43.81-.31.48.14.92.36,1.43.34.14,0,.34.19.41.34.14.31.24.67.32,1.01.12.52.22,1.05.73,1.37.17.1.27.32.36.52.12.23.28.31.52.19.27-.12.52-.27.78-.4.34.41.39.82.11,1.32h.04Z"/>
  <g class="st0">
    <path class="st1" d="M401.72,164.54c1.22,0,2.16.48,2.82,1.45.66.97.88,2.11.67,3.43-.21,1.28-.75,2.36-1.59,3.22-.85.87-1.9,1.3-3.14,1.3-1.16,0-2.01-.42-2.55-1.27l-.81,4.58h-2.95l2.2-12.46h2.95l-.13.72c.68-.65,1.52-.97,2.53-.97ZM402.26,169.24c.11-.59.02-1.06-.25-1.42-.27-.35-.69-.53-1.25-.53s-1.02.17-1.42.51c-.4.34-.66.79-.78,1.36l-.04.12c-.08.57.02,1.03.3,1.37s.7.52,1.25.52,1.04-.17,1.44-.52c.4-.35.65-.82.75-1.42Z"/>
    <path class="st1" d="M413.6,164.79h2.96l-1.57,8.9h-2.96l.12-.69c-.69.63-1.56.94-2.6.94-1.27,0-2.21-.48-2.82-1.44-.61-.96-.81-2.09-.6-3.38.2-1.26.74-2.34,1.6-3.23.87-.9,1.94-1.34,3.22-1.34,1.14,0,1.96.41,2.46,1.23l.18-.98ZM409.36,170.65c.27.36.69.53,1.25.53s1.04-.17,1.44-.52c.4-.34.66-.8.77-1.37v-.05c.09-.58,0-1.05-.27-1.41-.27-.36-.69-.53-1.26-.53s-1.04.18-1.44.53c-.4.36-.65.83-.75,1.41-.09.58,0,1.05.27,1.41Z"/>
    <path class="st1" d="M420.93,166.46c.27-.6.68-1.06,1.21-1.38.53-.31,1.13-.47,1.8-.47l-.55,3.28c-.68-.09-1.32.02-1.94.36-.62.33-1,.92-1.15,1.76l.05-.3-.7,3.99h-2.95l1.58-8.9h2.95l-.29,1.67Z"/>
  </g>
  <path class="st1" d="M22.43,109.86h10.19l-15.42,27.84H7.55l-4.61-27.84h9.35l2.34,15.81,7.8-15.81Z"/>
  <path class="st1" d="M47.1,109.08c4.19,0,7.48,1.42,9.86,4.26,2.38,2.84,3.19,6.3,2.45,10.38-.15,1.11-.46,2.26-.95,3.45h-19.1c.52,2.26,2.3,3.4,5.35,3.4,2.23,0,4.06-.67,5.51-2l5.9,5.4c-3.23,3.01-7.28,4.51-12.14,4.51s-8.46-1.47-10.89-4.4c-2.43-2.93-3.29-6.55-2.59-10.86.67-4.08,2.56-7.46,5.68-10.13,3.12-2.67,6.76-4.01,10.91-4.01ZM40.47,120.72h10.52c-.19-2.56-1.65-3.84-4.4-3.84s-4.79,1.28-6.13,3.84Z"/>
  <path class="st1" d="M82.5,109.08c3,0,5.3,1.05,6.91,3.14,1.61,2.1,2.1,5.04,1.47,8.82l-2.94,16.66h-9.22l2.73-15.48c.22-1.48.02-2.59-.61-3.31-.63-.72-1.58-1.09-2.84-1.09-1.41,0-2.59.43-3.54,1.28s-1.57,2.12-1.87,3.79v-.07l-2.63,14.88h-9.22l4.93-27.84h9.22l-.5,2.8c2.11-2.39,4.81-3.58,8.11-3.58Z"/>
  <path class="st1" d="M119.46,98.73h9.22l-6.88,38.98h-9.22l.39-2.2c-2.19,1.98-4.92,2.98-8.19,2.98-3.97,0-6.91-1.5-8.83-4.51-1.91-3.01-2.53-6.53-1.87-10.58.63-3.93,2.3-7.3,5.01-10.11,2.71-2.8,6.07-4.2,10.08-4.2,3.57,0,6.16,1.29,7.77,3.86l2.51-14.22ZM108.12,129.85c1.71,0,3.18-.52,4.43-1.55,1.24-1.03,2.05-2.42,2.42-4.16l.11-.61c.26-1.77-.05-3.19-.92-4.24-.87-1.05-2.18-1.58-3.92-1.58s-3.26.56-4.54,1.67c-1.28,1.11-2.07,2.58-2.37,4.4-.3,1.82,0,3.29.86,4.4.87,1.11,2.18,1.67,3.93,1.67Z"/>
  <path class="st1" d="M144.93,109.08c4.19,0,7.48,1.42,9.86,4.26s3.19,6.3,2.45,10.38c-.15,1.11-.46,2.26-.95,3.45h-19.1c.52,2.26,2.3,3.4,5.35,3.4,2.23,0,4.06-.67,5.51-2l5.9,5.4c-3.23,3.01-7.28,4.51-12.14,4.51s-8.46-1.47-10.89-4.4c-2.43-2.93-3.29-6.55-2.59-10.86.67-4.08,2.56-7.46,5.68-10.13,3.12-2.67,6.76-4.01,10.91-4.01ZM138.31,120.72h10.52c-.19-2.56-1.65-3.84-4.4-3.84s-4.79,1.28-6.13,3.84Z"/>
  <path class="st1" d="M183.52,109.86l-1.11,6.35-11.81,12.92h10.08l-1.5,8.58h-22.83l1.17-6.35,11.75-12.92h-8.97l1.5-8.58h21.72Z"/>
  <path class="st1" d="M206.13,109.86h5.4l-15.14,27.84h-5.83l-4.91-27.84h4.93l3.88,22.4,11.68-22.4Z"/>
  <path class="st1" d="M223,138.43c-4.12,0-7.42-1.43-9.91-4.29s-3.34-6.48-2.56-10.86c.78-4.31,2.82-7.74,6.12-10.3,3.3-2.56,6.98-3.84,11.03-3.84s7.16,1.43,9.58,4.29,3.25,6.44,2.51,10.75c-.74,4.38-2.73,7.85-5.96,10.41-3.23,2.56-6.83,3.84-10.8,3.84ZM223.39,133.7c2.71,0,5.19-.89,7.43-2.67,2.25-1.78,3.63-4.23,4.15-7.35.52-3.01-.03-5.39-1.64-7.16-1.61-1.76-3.76-2.64-6.43-2.64-2.64.04-5.07.93-7.29,2.67-2.23,1.75-3.64,4.16-4.23,7.24-.52,3.12.03,5.56,1.64,7.32,1.61,1.76,3.74,2.63,6.37,2.59Z"/>
  <path class="st1" d="M254.35,114.54l-2.66,15.08c-.26,1.34-.15,2.31.34,2.9.48.6,1.27.9,2.37.92,1.09.02,2.46,0,4.09-.08l-.78,4.34c-4.12.56-7.1.2-8.95-1.09-1.85-1.28-2.47-3.61-1.88-6.99l2.66-15.09h-5.51l.89-4.68h5.45l1.12-6.34,5.06-1.46-1.37,7.8h7.46l-.84,4.68h-7.45Z"/>
  <path class="st1" d="M272.67,113.93c2.34-3.15,5.51-4.68,9.52-4.56l-.89,5.07c-2.38-.07-4.54.56-6.5,1.92-1.96,1.35-3.2,3.55-3.73,6.59v-.06s-2.62,14.83-2.62,14.83h-4.81l4.94-27.84h4.81l-.72,4.06Z"/>
  <path class="st1" d="M298.45,109.14c4.19,0,7.41,1.44,9.66,4.31,2.25,2.88,2.98,6.34,2.2,10.39-.07.59-.26,1.32-.56,2.17h-23.28c0,2.49.77,4.42,2.31,5.79,1.54,1.37,3.59,2.06,6.15,2.06,3.75,0,6.7-1.37,8.85-4.12l3.62,2.62c-1.41,1.93-3.28,3.42-5.6,4.48-2.32,1.06-4.8,1.59-7.43,1.59-4.38,0-7.74-1.47-10.08-4.4-2.34-2.93-3.14-6.53-2.39-10.8.7-4.05,2.62-7.41,5.74-10.08s6.72-4.01,10.8-4.01ZM287.2,121.72h18.54c.11-2.63-.54-4.63-1.95-5.99-1.41-1.36-3.29-2.03-5.62-2.03-2.6,0-4.87.72-6.82,2.14-1.95,1.43-3.33,3.39-4.15,5.87Z"/>
  <path class="st1" d="M334.14,109.86h10.19l-15.42,27.84h-9.65l-4.61-27.84h9.35l2.34,15.81,7.8-15.81Z"/>
  <path class="st1" d="M355.13,138.48c-3.16,0-5.82-.79-7.99-2.37-2.17-1.58-3.65-3.54-4.43-5.87-.78-2.34-.93-4.79-.45-7.35.74-3.86,2.61-7.13,5.6-9.8,2.99-2.67,6.73-4.01,11.22-4.01s7.85,1.59,10.19,4.76c2.34,3.17,3.15,6.75,2.45,10.72-.67,3.79-2.52,7.05-5.57,9.8-3.04,2.75-6.72,4.12-11.03,4.12ZM355.86,129.58c1.63,0,3.06-.54,4.29-1.61s1.99-2.47,2.28-4.18c.3-1.71.03-3.1-.81-4.18-.84-1.08-2.07-1.61-3.7-1.61s-3.01.54-4.23,1.61c-1.23,1.08-1.99,2.47-2.28,4.18-.3,1.71-.03,3.1.81,4.18s2.05,1.61,3.65,1.61Z"/>
  <path class="st1" d="M373.45,137.7l4.93-27.84h9.22l-4.93,27.84h-9.22ZM383.47,107.58c-1.45,0-2.62-.53-3.51-1.59s-1.21-2.31-.95-3.76c.22-1.41.93-2.64,2.12-3.7,1.19-1.06,2.54-1.59,4.06-1.59s2.66.52,3.54,1.56,1.18,2.28.92,3.73c-.22,1.49-.93,2.75-2.12,3.79-1.19,1.04-2.54,1.56-4.06,1.56Z"/>
  <path class="st1" d="M402.85,118.72l-1.39,8.07c-.22,1.26.07,2.04.89,2.34.82.3,2.3.37,4.45.22l-1.45,8.35c-5.23.7-8.93.18-11.08-1.59-2.15-1.76-2.86-4.8-2.12-9.1l1.45-8.3h-4.18l1.56-8.85h4.18l.89-5.01,9.74-2.78-1.39,7.8h5.85l-1.61,8.85h-5.79Z"/>
  <path class="st1" d="M432.5,109.86h9.22l-4.93,27.84h-9.22l.5-2.86c-2.11,2.42-4.82,3.63-8.12,3.63-3.01,0-5.32-1.05-6.93-3.15s-2.1-5.04-1.47-8.82l2.94-16.65h9.22l-2.73,15.48c-.22,1.49-.02,2.59.61,3.32.63.72,1.58,1.09,2.85,1.09,1.42,0,2.6-.43,3.55-1.28.95-.85,1.57-2.12,1.87-3.79v.07l2.63-14.88Z"/>
  <path class="st1" d="M455.38,115.08c.85-1.89,2.12-3.32,3.79-4.3,1.67-.98,3.54-1.47,5.62-1.47l-1.73,10.25c-2.12-.3-4.14.07-6.06,1.11-1.93,1.04-3.12,2.87-3.58,5.51l.17-.93-2.21,12.47h-9.22l4.93-27.84h9.22l-.92,5.22Z"/>
  <path class="st1" d="M480.58,109.08c4.19,0,7.48,1.42,9.86,4.26,2.38,2.84,3.19,6.3,2.45,10.38-.15,1.11-.46,2.26-.95,3.45h-19.1c.52,2.26,2.3,3.4,5.35,3.4,2.23,0,4.06-.67,5.51-2l5.9,5.4c-3.23,3.01-7.28,4.51-12.14,4.51s-8.45-1.47-10.89-4.4-3.29-6.55-2.59-10.86c.67-4.08,2.56-7.46,5.68-10.13s6.76-4.01,10.91-4.01ZM473.96,120.72h10.52c-.19-2.56-1.65-3.84-4.4-3.84s-4.79,1.28-6.13,3.84Z"/>
  <path class="st1" d="M498.34,138.32c-1,0-1.79-.36-2.37-1.09-.58-.72-.77-1.59-.58-2.59.19-1.04.67-1.89,1.45-2.56s1.71-1,2.78-1c1,0,1.8.36,2.39,1.09.59.72.8,1.59.61,2.59-.19,1.04-.67,1.89-1.45,2.56-.78.67-1.73,1-2.84,1Z"/>
  <path class="st1" d="M519.11,138.43c-2.75,0-5-.6-6.77-1.81-1.76-1.21-2.98-2.85-3.65-4.93l4.34-2.23c.3,1.3,1.01,2.36,2.14,3.17,1.13.82,2.57,1.23,4.32,1.23,1.63,0,3-.32,4.09-.95,1.09-.63,1.75-1.55,1.98-2.74.15-.82-.02-1.51-.5-2.07-.48-.56-1.15-1-2.02-1.33-.87-.33-1.83-.69-2.87-1.08-1.04-.39-2.09-.79-3.16-1.19-1.06-.4-2-.9-2.82-1.49-.82-.59-1.43-1.42-1.84-2.48-.41-1.06-.48-2.29-.22-3.7.41-2.26,1.61-4.11,3.59-5.54,1.99-1.43,4.31-2.14,6.99-2.14,4.75,0,7.98,1.93,9.69,5.79l-4.29,2.23c-.74-2.34-2.6-3.51-5.58-3.51-1.29,0-2.47.3-3.54.89-1.07.6-1.72,1.49-1.94,2.68-.19,1.08.19,1.95,1.14,2.6.95.65,2.15,1.23,3.61,1.73,1.46.5,2.91,1,4.37,1.5,1.46.5,2.6,1.39,3.43,2.67.83,1.28,1.08,2.92.74,4.91-.45,2.48-1.67,4.4-3.68,5.76-2,1.36-4.53,2.03-7.57,2.03Z"/>
  <path class="st1" d="M553.68,109.14c3.26,0,5.73,1.04,7.42,3.12,1.69,2.08,2.23,4.86,1.64,8.35l-3.02,17.1h-4.81l2.96-16.81c.41-2.3.13-4.07-.84-5.29-.97-1.23-2.57-1.84-4.8-1.84-2.38,0-4.47.75-6.26,2.25-1.79,1.5-2.94,3.81-3.46,6.92v-.06s-2.62,14.83-2.62,14.83h-4.81l4.94-27.84h4.81l-.65,3.68c2.41-2.94,5.57-4.4,9.5-4.4Z"/>
</svg>