<?xml version="1.0" encoding="UTF-8"?>
<svg id="Calque_1" xmlns="http://www.w3.org/2000/svg" version="1.1" viewBox="0 0 566.93 283.46">
  <!-- Generator: Adobe Illustrator 30.3.0, SVG Export Plug-In . SVG Version: 2.1.3 Build 182)  -->
  <defs>
    <style>
      .st0 {
        isolation: isolate;
      }

      .st1 {
        fill: #fff;
      }

      .st2 {
        fill: #185adb;
      }
    </style>
  </defs>
  <rect class="st1" x="335.28" y="146.31" width="226.69" height="62.95" rx="14.17" ry="14.17"/>
  <path class="st2" d="M377.38,190.41h-13.67l-1.83,5.77h-9.19l12.52-36.78h10.73l12.52,36.78h-9.24l-1.83-5.77h-.02ZM374.85,182.52l-4.33-13.51-4.31,13.51h8.63Z"/>
  <path class="st2" d="M390.25,184.31v-24.91h8.41v24.17c0,2.78,1.32,5.15,5.77,5.15s5.77-2.36,5.77-5.15v-24.17h8.41v24.91c0,7.89-6.1,12.62-14.18,12.62s-14.18-4.75-14.18-12.62Z"/>
  <path class="st2" d="M488.27,190.11l12.35-12.83c2.15-2.21,3.74-4.36,3.74-6.52,0-2.33-1.47-3.89-3.95-3.89s-4.42,1.68-5.41,4l-7.11-4.15c2.36-5.45,7.32-8.04,12.41-8.04,6.58,0,12.45,4.33,12.45,11.72,0,4.42-2.36,8.2-5.74,11.57l-6.1,6.16h12.35v8.1h-25.01v-6.1l.02-.02Z"/>
  <path class="st2" d="M544.55,190.32h-3.68v5.89h-8.52v-5.89h-16.71v-7.78l11.72-23.12h9.03l-11.72,23.12h7.68v-7.89h8.52v7.89h3.68v7.78Z"/>
  <path class="st2" d="M468.51,158.66c-10.56,0-19.14,8.31-19.14,19.14s8.58,19.14,19.14,19.14,19.14-8.31,19.14-19.14-8.56-19.14-19.14-19.14ZM478.04,183.23c-.1.51-.23,1.01-.36,1.51-.04.17-.11.36-.23.51-.25.36-.55.32-.74-.08-.34-.71,0-1.41.04-2.13,0-.08.11-.17.19-.25.38-.32.74-.63,1.28-1.09-.08.59-.1,1.05-.17,1.52ZM478.44,176.73c-.55,1.03-1.45,1.73-2.33,2.42-1.16.9-1.33,1.45-.95,2.82.06.25.13.46.17.71.17.78-.08,1.35-.78,1.75-.25.13-.46.29-.71.44.13.23.25.38.32.55.23.5.15,1.09-.29,1.3-.69.32-.93.97-1.26,1.54-.36.61-.8.99-1.45,1.18-.51.15-1.03.25-1.58.32-.67.1-1.24-.4-1.32-1.05,0-.11.04-.25-.04-.3-.93-1.03-.74-2.55-1.62-3.6-.48-.57-.48-1.28-.15-1.91.46-.9.38-1.64-.25-2.4-.44-.53-.53-1.24-.48-1.92.04-.27-.04-.32-.32-.4-.32-.1-.57-.32-.88-.48-.21-.1-.46-.17-.69-.17-.4,0-.82.1-1.22.13-.15,0-.32-.04-.46.04-1.01.51-1.73-.08-2.44-.67-.46-.4-.88-.84-1.33-1.24-.4-.32-.44-.69-.25-1.11.1-.19.17-.38.29-.55.21-.38.25-.69-.11-1.03-.32-.3-.34-.69-.17-1.11.32-.69.8-1.22,1.45-1.6.29-.17.42-.38.48-.72.08-.36.34-.69.53-1.01.08-.11.21-.23.25-.36.21-.59.61-.8,1.2-.71.32.04.71,0,1.03-.06.95-.15,1.89-.4,2.86-.5.72-.08,1.03.38,1.07,1.33.63.25,1.26.53,1.94.82.4-.63.67-.74,1.39-.53.82.25,1.58.61,2.46.59.25,0,.59.32.71.59.25.53.42,1.14.55,1.73.21.9.38,1.79,1.26,2.34.29.17.46.55.61.9.21.4.48.53.9.32.46-.21.9-.46,1.33-.69.59.71.67,1.41.19,2.27h.08Z"/>
  <path class="st2" d="M449.39,167.48h-9.45v28.7h-8.41v-28.7h-9.45v-8.1h27.33v8.1h-.02Z"/>
  <g class="st0">
    <path class="st1" d="M301.32,172.51c2.11,0,3.74.82,4.87,2.47,1.13,1.65,1.51,3.61,1.14,5.89-.39,2.22-1.31,4.06-2.76,5.54-1.46,1.47-3.24,2.21-5.35,2.21s-3.47-.72-4.36-2.17l-.31,1.75h-5.05l3.77-21.36h5.05l-1.3,7.34c1.16-1.11,2.59-1.67,4.3-1.67ZM302.28,180.57c.18-1.02.03-1.82-.46-2.43-.49-.6-1.2-.9-2.14-.9s-1.76.3-2.46.9c-.7.6-1.14,1.41-1.33,2.43-.16,1.02,0,1.83.49,2.43.49.6,1.21.9,2.17.9s1.75-.3,2.44-.9c.69-.6,1.12-1.41,1.28-2.43Z"/>
    <path class="st1" d="M319.18,172.94h5.83l-7.75,14.8c-1.32,2.54-2.83,4.32-4.52,5.33-1.69,1.01-3.66,1.42-5.92,1.24l.85-4.76c1.1,0,1.92-.14,2.47-.41s1.06-.79,1.53-1.54l-3.42-14.65h5.37l1.59,8.82,3.97-8.82Z"/>
  </g>
  <g>
    <path class="st1" d="M29.45,127.86c-10.56,0-17.56-3.91-20.99-11.74l13.93-6.78c1.4,3.63,4.04,5.44,7.92,5.44,2.8,0,4.33-.76,4.58-2.29.19-.95-.49-1.77-2.05-2.43-1.56-.67-3.47-1.32-5.73-1.96-2.26-.63-4.47-1.48-6.63-2.53-2.16-1.05-3.86-2.74-5.11-5.06-1.24-2.32-1.57-5.2-1-8.64.83-4.77,3.25-8.37,7.25-10.78,4.01-2.42,8.43-3.63,13.26-3.63,4.39,0,8.25.91,11.59,2.72,3.34,1.81,5.77,4.44,7.3,7.87l-13.46,6.49c-1.14-2.86-3.12-4.33-5.92-4.39-2.42-.13-3.82.73-4.2,2.58-.19,1.02.25,1.86,1.34,2.53,1.08.67,2.48,1.16,4.2,1.48,1.72.32,3.56.84,5.53,1.57,1.97.73,3.77,1.61,5.39,2.62,1.62,1.02,2.83,2.62,3.63,4.82.79,2.19.94,4.82.43,7.87-.89,4.9-3.31,8.49-7.25,10.78-3.95,2.29-8.62,3.44-14.03,3.44Z"/>
    <path class="st1" d="M84.23,77.47c7.19,0,12.82,2.43,16.89,7.3,4.07,4.87,5.47,10.8,4.2,17.8-.25,1.91-.8,3.88-1.62,5.92h-32.73c.89,3.88,3.94,5.82,9.16,5.82,3.82,0,6.97-1.14,9.45-3.43l10.12,9.26c-5.53,5.15-12.47,7.73-20.8,7.73s-14.49-2.51-18.66-7.54c-4.17-5.03-5.65-11.23-4.44-18.61,1.15-7,4.39-12.79,9.73-17.37,5.34-4.58,11.58-6.87,18.7-6.87ZM72.87,97.42h18.04c-.32-4.39-2.83-6.58-7.54-6.58s-8.21,2.19-10.5,6.58Z"/>
    <path class="st1" d="M107.99,126.52l5.36-30.65,6.83-39.02,15.87-.42-6.95,39.72-5.31,30.36h-15.79Z"/>
    <path class="st1" d="M133.08,126.52l5.36-30.65,6.83-39.02,15.87-.42-6.95,39.72-5.31,30.36h-15.79Z"/>
    <path class="st1" d="M219.68,77.57c5.08,0,9.05,1.75,11.91,5.25,2.86,3.5,3.81,8.17,2.86,14.02l-5.23,29.69h-8.24l5.18-29.39c.63-3.75.19-6.63-1.35-8.64-1.53-2-3.93-3.01-7.2-3.01-3.52,0-6.56,1.16-9.12,3.48-2.56,2.32-4.29,5.89-5.18,10.72l-4.63,26.84h-8.24l5.18-29.39c.63-3.75.24-6.63-1.2-8.64-1.44-2-3.72-3.01-6.85-3.01-3.51,0-6.65,1.17-9.39,3.51-2.75,2.34-4.54,5.88-5.37,10.61l.02-.09-4.79,27.01h-8.24l8.46-47.72h8.24l-1.02,5.74c4.06-4.65,9.08-6.98,15.05-6.98,6.41,0,10.67,2.77,12.76,8.3,4.32-5.54,9.78-8.3,16.38-8.3Z"/>
    <path class="st1" d="M281.09,78.81h9.26l-28.35,50.67c-6.38,11.45-14.4,16.83-24.07,16.13l1.34-7.73c2.99.25,5.58-.42,7.78-2.01,2.2-1.59,4.31-4.11,6.35-7.55l1.4-2.5-12.16-47.02h8.38l9.31,37.14,20.77-37.14Z"/>
    <path class="st1" d="M311.63,127.86c-7.63,0-13.55-2.51-17.75-7.54-4.2-5.03-5.73-11.23-4.58-18.61,1.14-7.06,4.39-12.87,9.73-17.42,5.34-4.55,11.58-6.82,18.7-6.82,5.03,0,9.27,1.13,12.74,3.39,3.47,2.26,6.06,5.3,7.78,9.11l-14.41,7.54c-1.4-3.05-3.88-4.58-7.44-4.58-2.8,0-5.27.89-7.39,2.67-2.13,1.78-3.42,4.1-3.87,6.97-.51,2.86-.02,5.22,1.48,7.06,1.49,1.85,3.58,2.77,6.25,2.77,3.69,0,6.65-1.59,8.87-4.77l12.6,8.02c-2.42,4.01-5.63,7.05-9.64,9.11-4.01,2.07-8.37,3.1-13.07,3.1Z"/>
    <path class="st1" d="M378.62,78.81h15.84l-8.4,47.72h-15.84l.67-3.72c-3.69,3.37-8.33,5.06-13.93,5.06-6.81,0-11.85-2.58-15.12-7.73-3.28-5.15-4.34-11.2-3.2-18.13,1.08-6.74,3.94-12.52,8.59-17.32,4.64-4.8,10.4-7.2,17.27-7.2,6.11,0,10.5,2.19,13.17,6.58l.95-5.25ZM355.91,110.21c1.46,1.91,3.69,2.86,6.68,2.86s5.57-.92,7.73-2.77c2.16-1.84,3.53-4.29,4.1-7.35v-.29c.51-3.12.03-5.63-1.43-7.54-1.46-1.91-3.72-2.86-6.77-2.86s-5.57.95-7.73,2.86c-2.16,1.91-3.5,4.42-4.01,7.54-.51,3.12-.03,5.63,1.43,7.54Z"/>
    <path class="st1" d="M417.88,87.75c1.46-3.23,3.63-5.69,6.49-7.37,2.86-1.68,6.07-2.52,9.64-2.52l-2.96,17.56c-3.63-.51-7.09.13-10.39,1.91-3.3,1.78-5.35,4.93-6.14,9.44l.28-1.6-3.78,21.36h-15.79l8.44-47.72h15.79l-1.58,8.94Z"/>
    <path class="st1" d="M438.26,127.57c-1.72,0-3.07-.62-4.06-1.86s-1.32-2.72-1-4.44c.32-1.78,1.14-3.24,2.48-4.39,1.34-1.14,2.93-1.72,4.77-1.72,1.72,0,3.08.62,4.1,1.86s1.37,2.72,1.05,4.44c-.32,1.78-1.14,3.25-2.48,4.39-1.34,1.15-2.96,1.72-4.87,1.72Z"/>
    <path class="st1" d="M471.86,85.77c4.01-5.41,9.45-8.01,16.32-7.82l-1.53,8.68c-4.07-.13-7.78.97-11.13,3.29-3.35,2.32-5.48,6.08-6.4,11.29v-.09s-4.49,25.41-4.49,25.41h-8.24l8.46-47.72h8.24l-1.24,6.96Z"/>
    <path class="st1" d="M552.21,78.81h9.07l-23.28,47.72h-8.49l-4.98-35.63-17.06,35.63h-9.2l-5.97-47.72h8.19l4.42,36.37,17.36-36.37h8.06l.19.19,4.96,36.16,16.76-36.35Z"/>
  </g>
</svg>