<?xml version="1.0" encoding="UTF-8"?>
<svg id="Calque_1" xmlns="http://www.w3.org/2000/svg" version="1.1" viewBox="0 0 566.93 283.46">
  <!-- Generator: Adobe Illustrator 30.3.0, SVG Export Plug-In . SVG Version: 2.1.3 Build 182)  -->
  <defs>
    <style>
      .st0 {
        isolation: isolate;
      }

      .st1 {
        fill: #fff;
      }

      .st2 {
        fill: #185adb;
      }
    </style>
  </defs>
  <rect class="st1" x="428.65" y="149.44" width="135.52" height="37.64" rx="14.17" ry="14.17"/>
  <path class="st2" d="M453.82,175.81h-8.17l-1.09,3.45h-5.49l7.49-21.99h6.42l7.49,21.99h-5.53l-1.09-3.45h-.01ZM452.31,171.09l-2.59-8.08-2.58,8.08h5.16Z"/>
  <path class="st2" d="M461.51,172.16v-14.89h5.02v14.45c0,1.66.79,3.08,3.45,3.08s3.45-1.41,3.45-3.08v-14.45h5.02v14.89c0,4.72-3.65,7.54-8.48,7.54s-8.48-2.84-8.48-7.54Z"/>
  <path class="st2" d="M496.87,162.1h-5.65v17.16h-5.02v-17.16h-5.65v-4.84h16.34v4.84h-.01Z"/>
  <path class="st2" d="M520.11,175.62l7.38-7.67c1.29-1.32,2.23-2.61,2.23-3.9,0-1.39-.88-2.32-2.36-2.32s-2.64,1-3.24,2.39l-4.25-2.48c1.41-3.26,4.38-4.81,7.42-4.81,3.93,0,7.44,2.59,7.44,7.01,0,2.64-1.41,4.9-3.43,6.92l-3.65,3.68h7.38v4.84h-14.95v-3.65h.01Z"/>
  <path class="st2" d="M553.76,175.75h-2.2v3.52h-5.09v-3.52h-9.99v-4.65l7.01-13.82h5.4l-7.01,13.82h4.59v-4.72h5.09v4.72h2.2v4.65Z"/>
  <path class="st2" d="M508.3,156.82c-6.31,0-11.44,4.97-11.44,11.44s5.13,11.44,11.44,11.44,11.44-4.97,11.44-11.44-5.12-11.44-11.44-11.44ZM514,171.51c-.06.31-.14.6-.22.9-.02.1-.07.22-.14.31-.15.22-.33.19-.44-.05-.21-.42,0-.84.02-1.28,0-.05.07-.1.11-.15.23-.19.44-.38.76-.65-.05.35-.06.63-.1.91ZM514.23,167.62c-.33.62-.87,1.04-1.39,1.45-.7.54-.8.87-.57,1.69.03.15.08.27.1.42.1.47-.05.81-.47,1.05-.15.08-.27.17-.42.26.08.14.15.23.19.33.14.3.09.65-.17.77-.41.19-.56.58-.75.92-.22.36-.48.59-.87.71-.31.09-.62.15-.95.19-.4.06-.74-.24-.79-.63,0-.07.02-.15-.02-.18-.56-.62-.44-1.53-.97-2.15-.28-.34-.28-.76-.09-1.14.27-.54.23-.98-.15-1.44-.26-.32-.32-.74-.28-1.15.02-.16-.02-.19-.19-.24-.19-.06-.34-.19-.52-.28-.13-.06-.27-.1-.41-.1-.24,0-.49.06-.73.08-.09,0-.19-.02-.27.02-.6.31-1.04-.05-1.46-.4-.27-.24-.52-.5-.8-.74-.24-.19-.26-.41-.15-.66.06-.11.1-.23.17-.33.13-.23.15-.41-.07-.62-.19-.18-.21-.41-.1-.66.19-.41.48-.73.87-.96.17-.1.25-.23.28-.43.05-.22.21-.41.32-.6.05-.07.13-.14.15-.22.13-.35.36-.48.72-.42.19.02.42,0,.62-.03.57-.09,1.13-.24,1.71-.3.43-.05.62.23.64.8.38.15.75.32,1.16.49.24-.38.4-.44.83-.32.49.15.95.36,1.47.35.15,0,.35.19.42.35.15.32.25.68.33,1.04.13.54.23,1.07.75,1.4.17.1.27.33.36.54.13.24.28.32.54.19.27-.13.54-.27.8-.41.35.42.4.84.11,1.36h.05Z"/>
  <g class="st0">
    <path class="st1" d="M399.25,165.11c1.25,0,2.22.5,2.89,1.49.68.99.9,2.16.68,3.51-.22,1.31-.76,2.41-1.63,3.3-.87.89-1.94,1.33-3.22,1.33-1.19,0-2.06-.43-2.61-1.3l-.83,4.69h-3.02l2.25-12.77h3.02l-.13.74c.69-.66,1.56-.99,2.59-.99ZM399.8,169.92c.11-.61.02-1.09-.26-1.45-.28-.36-.71-.54-1.28-.54s-1.05.17-1.46.52c-.41.35-.68.81-.8,1.4l-.04.13c-.08.58.02,1.05.31,1.4s.72.53,1.28.53,1.06-.18,1.48-.54c.41-.36.67-.84.77-1.45Z"/>
    <path class="st1" d="M411.42,165.36h3.03l-1.61,9.12h-3.03l.13-.71c-.71.64-1.59.97-2.66.97-1.3,0-2.27-.49-2.89-1.48-.63-.99-.83-2.14-.61-3.47.21-1.29.75-2.39,1.64-3.31.89-.92,1.99-1.38,3.3-1.38,1.17,0,2.01.42,2.52,1.26l.18-1ZM407.08,171.37c.28.36.71.55,1.28.55s1.06-.18,1.48-.53c.41-.35.67-.82.78-1.4v-.06c.1-.6,0-1.08-.27-1.44-.28-.36-.71-.55-1.3-.55s-1.06.18-1.48.55c-.41.36-.67.85-.77,1.44-.1.6,0,1.08.27,1.44Z"/>
    <path class="st1" d="M418.93,167.07c.28-.62.69-1.09,1.24-1.41.55-.32,1.16-.48,1.84-.48l-.57,3.36c-.69-.1-1.36.02-1.99.36-.63.34-1.02.94-1.17,1.8l.05-.31-.72,4.08h-3.02l1.61-9.12h3.02l-.3,1.71Z"/>
  </g>
  <g>
    <path class="st1" d="M22.03,109.09h10.44l-15.8,28.53H6.78l-4.72-28.53h9.58l2.4,16.2,7.99-16.2Z"/>
    <path class="st1" d="M47.3,108.29c4.3,0,7.66,1.45,10.1,4.36,2.43,2.91,3.27,6.46,2.51,10.64-.15,1.14-.48,2.32-.97,3.54h-19.57c.53,2.32,2.36,3.48,5.48,3.48,2.28,0,4.16-.68,5.65-2.05l6.05,5.53c-3.31,3.08-7.45,4.62-12.44,4.62s-8.66-1.5-11.15-4.51c-2.49-3-3.38-6.71-2.65-11.13.68-4.18,2.62-7.65,5.82-10.38,3.19-2.74,6.92-4.11,11.18-4.11ZM40.51,120.21h10.78c-.19-2.62-1.69-3.94-4.51-3.94s-4.91,1.31-6.28,3.94Z"/>
    <path class="st1" d="M83.57,108.29c3.07,0,5.43,1.07,7.08,3.22,1.65,2.15,2.15,5.16,1.51,9.04l-3.01,17.06h-9.44l2.8-15.86c.23-1.52.02-2.65-.63-3.39-.65-.74-1.62-1.11-2.91-1.11-1.45,0-2.66.44-3.63,1.31s-1.61,2.17-1.91,3.88v-.07l-2.7,15.25h-9.44l5.05-28.53h9.44l-.51,2.87c2.16-2.44,4.93-3.67,8.31-3.67Z"/>
    <path class="st1" d="M121.44,97.68h9.44l-7.05,39.94h-9.44l.4-2.25c-2.24,2.03-5.04,3.05-8.39,3.05-4.07,0-7.08-1.54-9.04-4.62-1.96-3.08-2.6-6.69-1.91-10.84.65-4.03,2.36-7.48,5.13-10.35,2.78-2.87,6.22-4.31,10.33-4.31,3.66,0,6.31,1.32,7.96,3.96l2.57-14.57ZM109.83,129.57c1.75,0,3.26-.53,4.54-1.59,1.27-1.06,2.1-2.48,2.48-4.26l.11-.62c.27-1.82-.05-3.27-.94-4.35-.89-1.08-2.23-1.62-4.02-1.62s-3.34.57-4.65,1.71c-1.31,1.14-2.12,2.64-2.42,4.51-.3,1.86-.01,3.37.88,4.51.89,1.14,2.23,1.71,4.02,1.71Z"/>
    <path class="st1" d="M147.54,108.29c4.3,0,7.66,1.45,10.1,4.36s3.27,6.46,2.51,10.64c-.15,1.14-.48,2.32-.97,3.54h-19.57c.53,2.32,2.36,3.48,5.48,3.48,2.28,0,4.16-.68,5.65-2.05l6.05,5.53c-3.31,3.08-7.46,4.62-12.44,4.62s-8.66-1.5-11.15-4.51c-2.49-3-3.38-6.71-2.65-11.13.68-4.18,2.62-7.65,5.82-10.38,3.19-2.74,6.92-4.11,11.18-4.11ZM140.75,120.21h10.78c-.19-2.62-1.69-3.94-4.51-3.94s-4.91,1.31-6.28,3.94Z"/>
    <path class="st1" d="M187.08,109.09l-1.14,6.5-12.1,13.24h10.33l-1.54,8.79h-23.39l1.2-6.5,12.04-13.24h-9.19l1.54-8.79h22.25Z"/>
    <path class="st1" d="M210.24,109.09h5.53l-15.52,28.53h-5.98l-5.04-28.53h5.05l3.97,22.96,11.97-22.96Z"/>
    <path class="st1" d="M227.53,138.35c-4.22,0-7.61-1.46-10.15-4.39s-3.42-6.64-2.62-11.13c.8-4.41,2.89-7.93,6.27-10.55,3.38-2.62,7.15-3.94,11.3-3.94s7.34,1.46,9.81,4.39,3.33,6.6,2.57,11.01c-.76,4.49-2.8,8.05-6.1,10.67-3.31,2.62-7,3.94-11.07,3.94ZM227.93,133.5c2.78,0,5.32-.91,7.62-2.74,2.3-1.83,3.72-4.34,4.25-7.53.53-3.08-.03-5.52-1.68-7.33-1.65-1.81-3.85-2.71-6.59-2.71-2.7.04-5.19.95-7.47,2.74-2.28,1.79-3.73,4.26-4.34,7.42-.53,3.2.03,5.7,1.68,7.5,1.65,1.81,3.83,2.69,6.53,2.65Z"/>
    <path class="st1" d="M259.65,113.88l-2.72,15.45c-.26,1.37-.15,2.36.34,2.97.49.61,1.3.92,2.42.94,1.12.02,2.52,0,4.19-.09l-.8,4.45c-4.22.57-7.28.2-9.17-1.11-1.89-1.31-2.53-3.7-1.92-7.16l2.73-15.46h-5.65l.91-4.79h5.58l1.15-6.5,5.19-1.49-1.41,7.99h7.64l-.86,4.79h-7.64Z"/>
    <path class="st1" d="M278.42,113.25c2.4-3.23,5.65-4.79,9.76-4.68l-.91,5.19c-2.43-.08-4.65.58-6.66,1.96-2,1.39-3.28,3.64-3.82,6.75v-.06s-2.69,15.19-2.69,15.19h-4.92l5.06-28.53h4.92l-.74,4.16Z"/>
    <path class="st1" d="M304.83,108.35c4.3,0,7.6,1.47,9.9,4.42,2.3,2.95,3.05,6.49,2.25,10.64-.08.61-.27,1.35-.57,2.22h-23.85c0,2.55.79,4.53,2.37,5.93,1.58,1.41,3.68,2.11,6.3,2.11,3.84,0,6.87-1.41,9.07-4.22l3.71,2.68c-1.45,1.98-3.36,3.51-5.73,4.59-2.38,1.08-4.92,1.63-7.62,1.63-4.49,0-7.93-1.5-10.33-4.51-2.4-3-3.21-6.69-2.45-11.07.72-4.15,2.68-7.59,5.88-10.33s6.88-4.11,11.07-4.11ZM293.31,121.24h19c.11-2.7-.55-4.74-2-6.13-1.45-1.39-3.37-2.08-5.76-2.08-2.66,0-4.99.73-6.99,2.2-2,1.46-3.41,3.47-4.25,6.02Z"/>
    <path class="st1" d="M341.4,109.09h10.44l-15.8,28.53h-9.89l-4.72-28.53h9.58l2.4,16.2,7.99-16.2Z"/>
    <path class="st1" d="M362.91,138.41c-3.23,0-5.96-.81-8.19-2.42-2.23-1.62-3.74-3.62-4.54-6.02-.8-2.4-.95-4.91-.46-7.53.76-3.96,2.67-7.3,5.73-10.04,3.06-2.74,6.89-4.11,11.5-4.11s8.05,1.63,10.44,4.88c2.4,3.25,3.23,6.91,2.51,10.98-.68,3.88-2.59,7.23-5.7,10.04-3.12,2.82-6.88,4.22-11.3,4.22ZM363.65,129.28c1.67,0,3.14-.55,4.39-1.65s2.03-2.53,2.34-4.28c.3-1.75.03-3.17-.83-4.28-.86-1.1-2.12-1.65-3.79-1.65s-3.08.55-4.34,1.65c-1.26,1.1-2.04,2.53-2.34,4.28-.3,1.75-.03,3.18.83,4.28s2.1,1.65,3.74,1.65Z"/>
    <path class="st1" d="M381.68,137.61l5.05-28.53h9.44l-5.05,28.53h-9.44ZM391.95,106.75c-1.48,0-2.68-.54-3.59-1.63s-1.24-2.37-.97-3.85c.23-1.44.95-2.71,2.17-3.79,1.22-1.08,2.6-1.63,4.16-1.63s2.73.53,3.62,1.6,1.21,2.34.94,3.82c-.23,1.52-.95,2.82-2.17,3.88-1.22,1.06-2.61,1.6-4.16,1.6Z"/>
    <path class="st1" d="M411.8,118.16l-1.43,8.27c-.23,1.29.08,2.09.91,2.4.84.3,2.36.38,4.56.23l-1.48,8.56c-5.36.72-9.15.18-11.35-1.63-2.21-1.81-2.93-4.91-2.17-9.33l1.48-8.5h-4.28l1.6-9.07h4.28l.91-5.13,9.98-2.85-1.43,7.99h5.99l-1.65,9.07h-5.93Z"/>
    <path class="st1" d="M442.18,109.09h9.44l-5.05,28.53h-9.44l.52-2.93c-2.17,2.48-4.94,3.72-8.32,3.72-3.08,0-5.45-1.07-7.1-3.22s-2.16-5.16-1.51-9.04l3.01-17.06h9.44l-2.8,15.86c-.23,1.52-.02,2.66.63,3.4.65.74,1.62,1.11,2.92,1.11,1.45,0,2.66-.44,3.64-1.31.97-.87,1.61-2.17,1.92-3.88v.07l2.7-15.25Z"/>
    <path class="st1" d="M465.63,114.43c.87-1.93,2.17-3.4,3.88-4.41,1.71-1,3.63-1.51,5.76-1.51l-1.77,10.5c-2.17-.3-4.24.08-6.21,1.14-1.98,1.06-3.2,2.95-3.67,5.64l.17-.96-2.26,12.77h-9.44l5.05-28.53h9.44l-.95,5.34Z"/>
    <path class="st1" d="M491.45,108.29c4.3,0,7.66,1.45,10.1,4.36,2.43,2.91,3.27,6.46,2.51,10.64-.15,1.14-.48,2.32-.97,3.54h-19.57c.53,2.32,2.36,3.48,5.48,3.48,2.28,0,4.16-.68,5.65-2.05l6.05,5.53c-3.31,3.08-7.46,4.62-12.44,4.62s-8.66-1.5-11.15-4.51-3.38-6.71-2.65-11.13c.68-4.18,2.62-7.65,5.82-10.38s6.92-4.11,11.18-4.11ZM484.66,120.21h10.78c-.19-2.62-1.69-3.94-4.51-3.94s-4.91,1.31-6.28,3.94Z"/>
    <path class="st1" d="M509.65,138.24c-1.03,0-1.83-.37-2.42-1.11-.59-.74-.79-1.63-.6-2.65.19-1.06.68-1.94,1.48-2.62s1.75-1.03,2.85-1.03c1.03,0,1.84.37,2.45,1.11.61.74.82,1.63.63,2.65-.19,1.06-.68,1.94-1.48,2.62-.8.69-1.77,1.03-2.91,1.03Z"/>
    <path class="st1" d="M531.78,138.35c-4.26,0-7.61-1.53-10.04-4.59-2.43-3.06-3.27-6.74-2.51-11.04.72-4.18,2.7-7.62,5.93-10.33,3.23-2.7,6.98-4.05,11.24-4.05,2.85,0,5.32.68,7.42,2.03,2.09,1.35,3.56,3.15,4.39,5.39l-4.39,2.28c-1.26-3.23-3.86-4.85-7.82-4.85-2.89,0-5.45.94-7.67,2.82-2.23,1.88-3.6,4.25-4.14,7.1-.53,2.93-.02,5.38,1.54,7.36,1.56,1.98,3.78,2.97,6.68,2.97,1.94,0,3.72-.46,5.33-1.37,1.62-.91,2.94-2.15,3.96-3.71l3.99,2.62c-1.45,2.32-3.39,4.13-5.85,5.42-2.45,1.29-5.15,1.94-8.07,1.94Z"/>
    <path class="st1" d="M549.35,137.61l5.06-28.53h4.92l-5.06,28.53h-4.92ZM557.8,103.9c-.91,0-1.64-.32-2.17-.97-.53-.65-.72-1.43-.57-2.34.15-.95.59-1.75,1.31-2.4s1.58-.97,2.57-.97c.91,0,1.64.33,2.2,1,.55.67.75,1.46.6,2.37-.19.95-.65,1.74-1.37,2.37s-1.58.94-2.57.94Z"/>
  </g>
</svg>