<?xml version="1.0" encoding="UTF-8"?>
<svg id="Calque_1" xmlns="http://www.w3.org/2000/svg" version="1.1" viewBox="0 0 566.93 283.46">
  <!-- Generator: Adobe Illustrator 30.3.0, SVG Export Plug-In . SVG Version: 2.1.3 Build 182)  -->
  <defs>
    <style>
      .st0 {
        isolation: isolate;
      }

      .st1 {
        fill: #fff;
      }

      .st2 {
        fill: #185adb;
      }
    </style>
  </defs>
  <rect class="st1" x="362.6" y="151.72" width="201.57" height="55.98" rx="14.17" ry="14.17"/>
  <path class="st2" d="M400.04,190.94h-12.15l-1.63,5.14h-8.17l11.13-32.71h9.54l11.13,32.71h-8.22l-1.63-5.14h-.02ZM397.79,183.92l-3.85-12.02-3.83,12.02h7.68Z"/>
  <path class="st2" d="M411.48,185.51v-22.15h7.47v21.49c0,2.47,1.17,4.58,5.14,4.58s5.14-2.1,5.14-4.58v-21.49h7.47v22.15c0,7.02-5.42,11.22-12.61,11.22s-12.61-4.22-12.61-11.22Z"/>
  <path class="st2" d="M498.64,190.67l10.98-11.41c1.92-1.97,3.32-3.88,3.32-5.8,0-2.07-1.3-3.46-3.51-3.46s-3.93,1.49-4.81,3.56l-6.32-3.69c2.1-4.85,6.51-7.15,11.03-7.15,5.85,0,11.07,3.85,11.07,10.42,0,3.93-2.1,7.29-5.1,10.29l-5.42,5.47h10.98v7.2h-22.24v-5.42l.02-.02Z"/>
  <path class="st2" d="M548.69,190.85h-3.27v5.24h-7.58v-5.24h-14.86v-6.91l10.42-20.56h8.03l-10.42,20.56h6.83v-7.02h7.58v7.02h3.27v6.91Z"/>
  <path class="st2" d="M481.07,162.7c-9.39,0-17.02,7.39-17.02,17.02s7.63,17.02,17.02,17.02,17.02-7.39,17.02-17.02-7.61-17.02-17.02-17.02ZM489.54,184.55c-.08.46-.2.9-.32,1.34-.03.15-.1.32-.2.46-.22.32-.49.29-.66-.07-.31-.63,0-1.25.03-1.9,0-.07.1-.15.17-.22.34-.29.66-.56,1.14-.97-.07.53-.08.93-.15,1.36ZM489.9,178.77c-.49.92-1.29,1.54-2.07,2.15-1.03.8-1.19,1.29-.85,2.51.05.22.12.41.15.63.15.69-.07,1.2-.69,1.56-.22.12-.41.25-.63.39.12.2.22.34.29.49.2.44.14.97-.25,1.15-.61.29-.83.86-1.12,1.37-.32.54-.71.88-1.29,1.05-.46.14-.92.22-1.41.29-.59.08-1.1-.36-1.17-.93,0-.1.03-.22-.03-.27-.83-.92-.66-2.27-1.44-3.2-.42-.51-.42-1.14-.14-1.69.41-.8.34-1.46-.22-2.14-.39-.47-.47-1.1-.42-1.71.03-.24-.03-.29-.29-.36-.29-.08-.51-.29-.78-.42-.19-.08-.41-.15-.61-.15-.36,0-.73.08-1.08.12-.14,0-.29-.03-.41.03-.9.46-1.54-.07-2.17-.59-.41-.36-.78-.75-1.19-1.1-.36-.29-.39-.61-.22-.98.08-.17.15-.34.25-.49.19-.34.22-.61-.1-.92-.29-.27-.31-.61-.15-.98.29-.61.71-1.08,1.29-1.42.25-.15.37-.34.42-.64.07-.32.31-.61.47-.9.07-.1.19-.2.22-.32.19-.53.54-.71,1.07-.63.29.03.63,0,.92-.05.85-.14,1.68-.36,2.54-.44.64-.07.92.34.95,1.19.56.22,1.12.47,1.73.73.36-.56.59-.66,1.24-.47.73.22,1.41.54,2.19.53.22,0,.53.29.63.53.22.47.37,1.02.49,1.54.19.8.34,1.59,1.12,2.08.25.15.41.49.54.8.19.36.42.47.8.29.41-.19.8-.41,1.19-.61.53.63.59,1.25.17,2.02h.07Z"/>
  <path class="st2" d="M464.07,170.55h-8.41v25.52h-7.47v-25.52h-8.41v-7.2h24.3v7.2h-.02Z"/>
  <g class="st0">
    <path class="st1" d="M332.4,175.02c1.88,0,3.32.73,4.33,2.2,1,1.47,1.34,3.21,1.02,5.24-.34,1.97-1.16,3.61-2.46,4.92-1.29,1.31-2.88,1.97-4.76,1.97s-3.08-.64-3.88-1.93l-.27,1.55h-4.49l3.35-18.99h4.49l-1.15,6.53c1.03-.99,2.31-1.48,3.83-1.48ZM333.25,182.19c.16-.9.03-1.62-.41-2.16s-1.07-.8-1.9-.8-1.56.27-2.18.8c-.62.53-1.02,1.25-1.18,2.16-.15.9,0,1.62.43,2.16.44.53,1.08.8,1.93.8s1.56-.27,2.17-.8c.61-.53.99-1.25,1.14-2.16Z"/>
    <path class="st1" d="M348.29,175.4h5.18l-6.89,13.16c-1.18,2.26-2.51,3.84-4.02,4.73-1.5.9-3.26,1.26-5.26,1.1l.76-4.23c.98,0,1.71-.12,2.2-.37.49-.24.94-.7,1.36-1.37l-3.04-13.02h4.78l1.41,7.84,3.53-7.84Z"/>
  </g>
  <g>
    <path class="st1" d="M21.17,135.32c-9.39,0-15.61-3.48-18.67-10.44l12.39-6.02c1.24,3.22,3.59,4.84,7.04,4.84,2.49,0,3.85-.68,4.07-2.04.17-.85-.44-1.57-1.82-2.16-1.39-.59-3.08-1.17-5.09-1.74-2.01-.56-3.97-1.31-5.9-2.25-1.92-.93-3.44-2.43-4.54-4.5-1.1-2.06-1.4-4.62-.89-7.68.73-4.24,2.89-7.44,6.45-9.59,3.56-2.15,7.49-3.22,11.79-3.22,3.9,0,7.34.81,10.31,2.42,2.97,1.61,5.13,3.95,6.49,7l-11.96,5.77c-1.02-2.55-2.77-3.85-5.26-3.9-2.15-.11-3.39.65-3.73,2.29-.17.91.23,1.65,1.19,2.25.96.59,2.21,1.03,3.73,1.31,1.53.28,3.17.75,4.92,1.4,1.75.65,3.35,1.43,4.79,2.33,1.44.91,2.52,2.33,3.22,4.29.71,1.95.83,4.29.38,7-.79,4.36-2.94,7.55-6.45,9.59-3.51,2.04-7.67,3.05-12.47,3.05Z"/>
    <path class="st1" d="M69.88,90.51c6.39,0,11.4,2.16,15.02,6.49,3.62,4.33,4.86,9.6,3.73,15.83-.23,1.7-.71,3.45-1.44,5.26h-29.11c.79,3.45,3.51,5.18,8.15,5.18,3.39,0,6.19-1.02,8.4-3.05l8.99,8.23c-4.92,4.58-11.09,6.87-18.5,6.87s-12.89-2.23-16.59-6.7c-3.71-4.47-5.02-9.98-3.95-16.55,1.02-6.22,3.9-11.37,8.66-15.44,4.75-4.07,10.3-6.11,16.63-6.11ZM59.78,108.25h16.04c-.28-3.9-2.52-5.85-6.7-5.85s-7.3,1.95-9.33,5.85Z"/>
    <path class="st1" d="M91.01,134.13l4.77-27.25,6.07-34.69,14.11-.37-6.18,35.32-4.72,27h-14.05Z"/>
    <path class="st1" d="M113.32,134.13l4.77-27.25,6.07-34.69,14.11-.37-6.18,35.32-4.72,27h-14.05Z"/>
    <path class="st1" d="M190.32,90.6c4.52,0,8.05,1.56,10.59,4.66s3.39,7.26,2.54,12.46l-4.65,26.4h-7.32l4.61-26.13c.56-3.34.17-5.9-1.2-7.68-1.36-1.78-3.5-2.67-6.4-2.67-3.13,0-5.84,1.03-8.11,3.09-2.28,2.06-3.81,5.24-4.61,9.53l-4.12,23.86h-7.32l4.61-26.13c.56-3.34.21-5.9-1.07-7.68-1.28-1.78-3.31-2.67-6.09-2.67-3.13,0-5.91,1.04-8.35,3.12-2.44,2.08-4.03,5.22-4.77,9.44l.02-.08-4.26,24.02h-7.32l7.53-42.43h7.32l-.91,5.1c3.61-4.14,8.07-6.21,13.38-6.21,5.7,0,9.49,2.46,11.35,7.38,3.84-4.92,8.7-7.38,14.57-7.38Z"/>
    <path class="st1" d="M244.93,91.7h8.23l-25.2,45.06c-5.67,10.18-12.8,14.96-21.4,14.34l1.19-6.87c2.66.23,4.96-.37,6.92-1.78,1.95-1.42,3.83-3.66,5.64-6.71l1.24-2.22-10.81-41.81h7.45l8.28,33.02,18.47-33.02Z"/>
    <path class="st1" d="M272.09,135.32c-6.79,0-12.05-2.23-15.78-6.7-3.73-4.47-5.09-9.98-4.07-16.55,1.02-6.28,3.9-11.44,8.66-15.49,4.75-4.04,10.3-6.07,16.63-6.07,4.47,0,8.24,1.01,11.33,3.01,3.08,2.01,5.39,4.71,6.92,8.1l-12.81,6.7c-1.25-2.72-3.45-4.07-6.62-4.07-2.49,0-4.68.79-6.58,2.38-1.9,1.58-3.04,3.65-3.44,6.19-.45,2.55-.01,4.64,1.31,6.28,1.33,1.64,3.18,2.46,5.56,2.46,3.28,0,5.91-1.41,7.89-4.24l11.2,7.13c-2.15,3.56-5.01,6.27-8.57,8.1s-7.44,2.76-11.63,2.76Z"/>
    <path class="st1" d="M331.66,91.7h14.09l-7.47,42.43h-14.09l.59-3.31c-3.28,3-7.41,4.5-12.39,4.5-6.05,0-10.54-2.29-13.45-6.87-2.91-4.58-3.86-9.96-2.84-16.12.96-6,3.51-11.13,7.64-15.4,4.13-4.27,9.25-6.41,15.36-6.41,5.43,0,9.33,1.95,11.71,5.86l.85-4.67ZM311.46,119.62c1.3,1.7,3.28,2.55,5.94,2.55s4.95-.82,6.87-2.46c1.92-1.64,3.14-3.82,3.65-6.53v-.25c.45-2.77.03-5.01-1.27-6.7-1.3-1.7-3.31-2.55-6.02-2.55s-4.95.85-6.87,2.55c-1.92,1.7-3.11,3.93-3.56,6.7-.45,2.77-.03,5.01,1.27,6.7Z"/>
    <path class="st1" d="M366.57,99.65c1.3-2.88,3.23-5.06,5.77-6.56,2.55-1.49,5.4-2.24,8.57-2.24l-2.63,15.61c-3.23-.45-6.31.11-9.24,1.7-2.94,1.58-4.76,4.38-5.46,8.39l.25-1.42-3.36,19h-14.04l7.51-42.43h14.04l-1.41,7.95Z"/>
    <path class="st1" d="M400.39,135.23c-6.34,0-11.31-2.28-14.93-6.83-3.62-4.55-4.87-10.03-3.73-16.42,1.07-6.22,4.02-11.34,8.83-15.36,4.81-4.02,10.38-6.02,16.72-6.02,4.24,0,7.92,1,11.03,3.01,3.11,2.01,5.29,4.68,6.53,8.02l-6.53,3.39c-1.87-4.81-5.74-7.21-11.63-7.21-4.3,0-8.1,1.4-11.41,4.2-3.31,2.8-5.36,6.32-6.15,10.56-.79,4.36-.03,8.01,2.29,10.95,2.32,2.94,5.63,4.41,9.93,4.41,2.89,0,5.53-.68,7.93-2.04,2.4-1.36,4.37-3.2,5.9-5.52l5.94,3.9c-2.15,3.45-5.05,6.14-8.7,8.06-3.65,1.92-7.65,2.89-12.01,2.89Z"/>
    <path class="st1" d="M468.84,91.7h7.32l-7.53,42.43h-7.32l1.07-6.02c-4.41,4.75-10.07,7.13-16.97,7.13-6.05,0-10.82-2.32-14.3-6.96-3.48-4.64-4.65-10.07-3.52-16.29,1.13-6.5,3.99-11.7,8.57-15.57,4.58-3.87,9.76-5.81,15.53-5.81,3.51,0,6.64.77,9.4,2.31,2.76,1.54,4.88,3.73,6.37,6.58l1.38-7.78ZM437.49,123.61c2.4,3,5.76,4.5,10.06,4.5s8.1-1.4,11.41-4.21c3.31-2.81,5.33-6.37,6.07-10.68.9-4.79.07-8.57-2.5-11.34-2.57-2.76-5.98-4.15-10.22-4.15-4.02,0-7.69,1.31-11.03,3.95-3.34,2.63-5.4,6.27-6.19,10.9-.79,4.36.01,8.03,2.42,11.03Z"/>
    <path class="st1" d="M495.34,135.23c-4.19,0-7.62-.92-10.31-2.76-2.69-1.84-4.54-4.34-5.56-7.51l6.62-3.39c.45,1.98,1.54,3.59,3.27,4.84,1.73,1.24,3.92,1.87,6.58,1.87,2.49,0,4.57-.48,6.24-1.45,1.67-.97,2.67-2.36,3.01-4.18.23-1.25-.03-2.3-.76-3.15-.73-.85-1.76-1.53-3.08-2.03-1.33-.5-2.78-1.05-4.37-1.65-1.59-.6-3.19-1.2-4.81-1.81-1.62-.61-3.05-1.37-4.29-2.27-1.25-.9-2.18-2.16-2.8-3.78-.62-1.61-.74-3.49-.34-5.64.62-3.45,2.45-6.27,5.47-8.44,3.03-2.18,6.58-3.27,10.65-3.27,7.24,0,12.16,2.94,14.76,8.83l-6.53,3.39c-1.12-3.56-3.96-5.35-8.5-5.35-1.96,0-3.76.46-5.4,1.36-1.64.91-2.62,2.27-2.96,4.09-.28,1.65.3,2.97,1.74,3.96,1.44.99,3.27,1.87,5.49,2.63,2.22.76,4.44,1.53,6.66,2.29,2.22.76,3.96,2.12,5.23,4.07,1.26,1.95,1.64,4.45,1.13,7.48-.68,3.79-2.55,6.71-5.6,8.78-3.05,2.06-6.9,3.1-11.54,3.1Z"/>
    <path class="st1" d="M548.27,90.6c4.97,0,8.74,1.58,11.31,4.75,2.57,3.17,3.4,7.41,2.5,12.72l-4.6,26.06h-7.32l4.52-25.62c.62-3.51.19-6.2-1.28-8.06-1.48-1.87-3.92-2.8-7.32-2.8-3.64,0-6.81,1.14-9.54,3.43-2.73,2.29-4.49,5.81-5.28,10.55v-.08s-3.98,22.59-3.98,22.59h-7.32l10.5-59.4h7.32l-3.99,22.59c3.67-4.48,8.5-6.72,14.49-6.72Z"/>
  </g>
</svg>