<?xml version="1.0" encoding="UTF-8"?>
<svg id="Calque_1" xmlns="http://www.w3.org/2000/svg" version="1.1" viewBox="0 0 566.93 283.46">
  <!-- Generator: Adobe Illustrator 30.3.0, SVG Export Plug-In . SVG Version: 2.1.3 Build 182)  -->
  <defs>
    <style>
      .st0 {
        isolation: isolate;
      }

      .st1 {
        fill: #fff;
      }

      .st2 {
        fill: #185adb;
      }
    </style>
  </defs>
  <rect class="st1" x="437.73" y="149.83" width="126.45" height="35.11" rx="14.17" ry="14.17"/>
  <path class="st2" d="M461.21,174.43h-7.62l-1.02,3.22h-5.12l6.98-20.52h5.99l6.98,20.52h-5.16l-1.02-3.22h-.01ZM459.8,170.03l-2.41-7.54-2.4,7.54h4.82Z"/>
  <path class="st2" d="M468.39,171.03v-13.89h4.69v13.48c0,1.55.73,2.87,3.22,2.87s3.22-1.32,3.22-2.87v-13.48h4.69v13.89c0,4.4-3.4,7.04-7.91,7.04s-7.91-2.65-7.91-7.04Z"/>
  <path class="st2" d="M501.38,161.64h-5.27v16.01h-4.69v-16.01h-5.27v-4.52h15.25v4.52h-.01Z"/>
  <path class="st2" d="M523.07,174.26l6.89-7.15c1.2-1.23,2.08-2.43,2.08-3.64,0-1.3-.82-2.17-2.2-2.17s-2.47.94-3.02,2.23l-3.97-2.32c1.32-3.04,4.08-4.49,6.92-4.49,3.67,0,6.94,2.41,6.94,6.54,0,2.47-1.32,4.57-3.2,6.45l-3.4,3.43h6.89v4.52h-13.95v-3.4h.01Z"/>
  <path class="st2" d="M554.46,174.38h-2.05v3.29h-4.75v-3.29h-9.32v-4.34l6.54-12.9h5.04l-6.54,12.9h4.28v-4.4h4.75v4.4h2.05v4.34Z"/>
  <path class="st2" d="M512.04,156.72c-5.89,0-10.67,4.64-10.67,10.67s4.78,10.67,10.67,10.67,10.67-4.64,10.67-10.67-4.77-10.67-10.67-10.67ZM517.36,170.42c-.05.29-.13.56-.2.84-.02.1-.06.2-.13.29-.14.2-.31.18-.41-.04-.19-.39,0-.79.02-1.19,0-.04.06-.1.11-.14.21-.18.41-.35.71-.61-.04.33-.05.58-.1.85ZM517.58,166.8c-.31.57-.81.97-1.3,1.35-.65.5-.74.81-.53,1.57.03.14.07.26.1.39.1.44-.04.75-.44.98-.14.07-.26.16-.39.24.07.13.14.21.18.31.13.28.09.61-.16.72-.38.18-.52.54-.7.86-.2.34-.45.55-.81.66-.29.09-.57.14-.88.18-.37.05-.69-.22-.73-.58,0-.06.02-.14-.02-.17-.52-.57-.41-1.42-.9-2.01-.27-.32-.27-.71-.09-1.06.26-.5.21-.91-.14-1.34-.24-.3-.3-.69-.27-1.07.02-.15-.02-.18-.18-.22-.18-.05-.32-.18-.49-.27-.12-.05-.26-.1-.38-.1-.22,0-.46.05-.68.07-.09,0-.18-.02-.26.02-.56.29-.97-.04-1.36-.37-.26-.22-.49-.47-.74-.69-.22-.18-.24-.38-.14-.62.05-.11.1-.21.16-.31.12-.21.14-.38-.06-.57-.18-.17-.19-.38-.1-.62.18-.38.45-.68.81-.89.16-.1.23-.21.27-.4.04-.2.19-.38.3-.56.04-.06.12-.13.14-.2.12-.33.34-.45.67-.39.18.02.39,0,.57-.03.53-.09,1.05-.22,1.59-.28.4-.04.57.21.6.74.35.14.7.3,1.08.46.22-.35.37-.41.78-.3.46.14.88.34,1.37.33.14,0,.33.18.39.33.14.3.23.64.31.97.12.5.21,1,.7,1.31.16.1.26.31.34.5.12.22.27.3.5.18.26-.12.5-.26.74-.38.33.39.37.79.11,1.27h.04Z"/>
  <g class="st0">
    <path class="st1" d="M410.3,164.45c1.17,0,2.07.46,2.7,1.39.63.93.84,2.02.64,3.28-.2,1.23-.71,2.25-1.52,3.08s-1.81,1.24-3,1.24c-1.11,0-1.92-.4-2.43-1.21l-.77,4.38h-2.82l2.1-11.91h2.82l-.12.69c.65-.62,1.45-.93,2.42-.93ZM410.81,168.94c.1-.57.02-1.02-.24-1.35-.26-.33-.66-.5-1.19-.5s-.98.16-1.36.49c-.39.32-.64.76-.75,1.3l-.03.12c-.08.54.02.98.29,1.31.27.33.67.49,1.19.49s.99-.17,1.38-.5c.39-.33.62-.79.72-1.35Z"/>
    <path class="st1" d="M421.66,164.69h2.82l-1.5,8.51h-2.82l.12-.66c-.66.6-1.49.9-2.49.9-1.21,0-2.11-.46-2.7-1.38-.58-.92-.77-2-.57-3.23.19-1.2.7-2.23,1.53-3.09s1.86-1.29,3.08-1.29c1.09,0,1.87.39,2.35,1.18l.17-.94ZM417.6,170.29c.26.34.66.51,1.19.51s.99-.16,1.38-.49c.39-.33.63-.77.73-1.31v-.05c.09-.56,0-1-.26-1.34-.26-.34-.66-.51-1.21-.51s-.99.17-1.38.51c-.39.34-.62.79-.72,1.34-.09.56,0,1,.26,1.35Z"/>
    <path class="st1" d="M428.66,166.28c.26-.58.65-1.02,1.16-1.32s1.08-.45,1.72-.45l-.53,3.13c-.65-.09-1.27.02-1.85.34s-.95.88-1.1,1.68l.05-.29-.67,3.81h-2.82l1.51-8.51h2.82l-.28,1.59Z"/>
  </g>
  <g>
    <path class="st1" d="M21.13,112.18h9.74l-14.74,26.62H6.91l-4.4-26.62h8.94l2.24,15.12,7.45-15.12Z"/>
    <path class="st1" d="M44.71,111.44c4.01,0,7.15,1.36,9.42,4.07,2.27,2.71,3.05,6.02,2.34,9.93-.14,1.06-.44,2.16-.9,3.3h-18.26c.5,2.17,2.2,3.25,5.11,3.25,2.13,0,3.89-.64,5.27-1.92l5.64,5.16c-3.09,2.87-6.96,4.31-11.6,4.31s-8.08-1.4-10.41-4.21c-2.32-2.8-3.15-6.26-2.48-10.38.64-3.9,2.45-7.13,5.43-9.69,2.98-2.56,6.46-3.83,10.43-3.83ZM38.38,122.56h10.06c-.18-2.45-1.58-3.67-4.21-3.67s-4.58,1.22-5.86,3.67Z"/>
    <path class="st1" d="M78.55,111.44c2.87,0,5.07,1,6.61,3.01,1.54,2,2.01,4.82,1.41,8.43l-2.81,15.92h-8.81l2.61-14.8c.21-1.42.02-2.48-.59-3.17-.6-.69-1.51-1.04-2.72-1.04-1.35,0-2.48.41-3.38,1.22-.91.82-1.5,2.02-1.79,3.62v-.07l-2.52,14.23h-8.81l4.71-26.62h8.81l-.47,2.68c2.02-2.28,4.6-3.42,7.75-3.42Z"/>
    <path class="st1" d="M113.89,101.54h8.81l-6.57,37.26h-8.81l.37-2.1c-2.09,1.9-4.7,2.84-7.82,2.84-3.8,0-6.61-1.44-8.44-4.31-1.83-2.87-2.42-6.25-1.78-10.11.6-3.76,2.2-6.98,4.79-9.66,2.59-2.68,5.8-4.02,9.63-4.02,3.41,0,5.89,1.23,7.42,3.69l2.4-13.59ZM103.05,131.29c1.63,0,3.04-.49,4.23-1.48,1.19-.99,1.96-2.31,2.32-3.97l.1-.58c.25-1.7-.04-3.05-.88-4.06-.83-1.01-2.08-1.51-3.75-1.51s-3.11.53-4.34,1.6c-1.22,1.06-1.98,2.47-2.26,4.21-.28,1.74,0,3.14.83,4.21.83,1.06,2.08,1.6,3.75,1.6Z"/>
    <path class="st1" d="M138.24,111.44c4.01,0,7.15,1.36,9.42,4.07,2.27,2.71,3.05,6.02,2.34,9.93-.14,1.06-.44,2.16-.91,3.3h-18.26c.5,2.17,2.2,3.25,5.11,3.25,2.13,0,3.89-.64,5.27-1.92l5.64,5.16c-3.09,2.87-6.96,4.31-11.6,4.31s-8.08-1.4-10.41-4.21c-2.32-2.8-3.15-6.26-2.48-10.38.64-3.9,2.45-7.13,5.43-9.69,2.98-2.56,6.46-3.83,10.43-3.83ZM131.9,122.56h10.06c-.18-2.45-1.58-3.67-4.21-3.67s-4.58,1.22-5.86,3.67Z"/>
    <path class="st1" d="M175.13,112.18l-1.06,6.07-11.29,12.35h9.64l-1.44,8.2h-21.82l1.12-6.07,11.23-12.35h-8.57l1.44-8.2h20.76Z"/>
    <path class="st1" d="M196.74,112.18h5.16l-14.48,26.62h-5.58l-4.7-26.62h4.71l3.71,21.42,11.17-21.42Z"/>
    <path class="st1" d="M212.87,139.49c-3.94,0-7.1-1.37-9.47-4.1-2.38-2.73-3.19-6.19-2.45-10.38.74-4.12,2.7-7.4,5.85-9.85s6.67-3.67,10.54-3.67,6.85,1.37,9.16,4.1c2.31,2.73,3.11,6.16,2.4,10.27-.71,4.19-2.61,7.51-5.7,9.95s-6.53,3.67-10.33,3.67ZM213.24,134.96c2.59,0,4.96-.85,7.11-2.56,2.15-1.7,3.47-4.05,3.97-7.03.5-2.87-.03-5.15-1.57-6.84-1.54-1.68-3.59-2.53-6.15-2.53-2.52.04-4.84.89-6.97,2.56-2.13,1.67-3.48,3.97-4.05,6.92-.5,2.98.03,5.31,1.57,7s3.57,2.51,6.09,2.48Z"/>
    <path class="st1" d="M242.84,116.65l-2.54,14.42c-.25,1.28-.14,2.2.32,2.77.46.57,1.21.86,2.26.88,1.05.02,2.35,0,3.91-.08l-.75,4.15c-3.94.53-6.79.19-8.55-1.04-1.76-1.22-2.36-3.45-1.79-6.68l2.54-14.43h-5.27l.85-4.47h5.21l1.07-6.06,4.84-1.39-1.31,7.46h7.13l-.8,4.47h-7.12Z"/>
    <path class="st1" d="M260.35,116.07c2.24-3.01,5.27-4.47,9.1-4.36l-.85,4.84c-2.27-.07-4.34.54-6.21,1.83-1.87,1.29-3.06,3.39-3.57,6.3v-.05s-2.51,14.17-2.51,14.17h-4.59l4.72-26.62h4.6l-.69,3.88Z"/>
    <path class="st1" d="M285,111.49c4.01,0,7.09,1.38,9.23,4.13,2.15,2.75,2.85,6.06,2.1,9.93-.07.57-.25,1.26-.53,2.08h-22.25c0,2.38.74,4.22,2.21,5.54,1.47,1.31,3.43,1.97,5.88,1.97,3.58,0,6.41-1.31,8.46-3.94l3.46,2.5c-1.35,1.85-3.13,3.27-5.35,4.29-2.22,1.01-4.59,1.52-7.11,1.52-4.19,0-7.4-1.4-9.63-4.21-2.24-2.8-3-6.25-2.29-10.33.67-3.87,2.5-7.08,5.48-9.64s6.42-3.83,10.33-3.83ZM274.24,123.52h17.73c.11-2.52-.51-4.43-1.86-5.72-1.35-1.3-3.14-1.94-5.38-1.94-2.48,0-4.66.68-6.52,2.05-1.86,1.37-3.19,3.24-3.96,5.62Z"/>
    <path class="st1" d="M319.12,112.18h9.74l-14.74,26.62h-9.23l-4.4-26.62h8.94l2.24,15.12,7.45-15.12Z"/>
    <path class="st1" d="M339.18,139.54c-3.02,0-5.56-.75-7.64-2.26-2.08-1.51-3.49-3.38-4.23-5.62-.75-2.24-.89-4.58-.43-7.03.71-3.69,2.49-6.81,5.35-9.37,2.86-2.56,6.43-3.83,10.73-3.83s7.51,1.52,9.74,4.55c2.24,3.03,3.02,6.45,2.34,10.25-.64,3.62-2.41,6.74-5.32,9.37-2.91,2.63-6.42,3.94-10.54,3.94ZM339.88,131.03c1.56,0,2.93-.51,4.1-1.54,1.17-1.03,1.9-2.36,2.18-3.99.28-1.63.03-2.96-.77-3.99-.8-1.03-1.98-1.54-3.54-1.54s-2.87.51-4.05,1.54c-1.17,1.03-1.9,2.36-2.18,3.99-.28,1.63-.03,2.96.77,3.99.8,1.03,1.96,1.54,3.49,1.54Z"/>
    <path class="st1" d="M356.7,138.8l4.71-26.62h8.81l-4.71,26.62h-8.81ZM366.28,110c-1.38,0-2.5-.51-3.35-1.52-.85-1.01-1.15-2.21-.91-3.59.21-1.35.89-2.53,2.02-3.54,1.13-1.01,2.43-1.52,3.88-1.52s2.55.5,3.38,1.49c.83.99,1.13,2.18.88,3.57-.21,1.42-.89,2.63-2.02,3.62-1.14.99-2.43,1.49-3.89,1.49Z"/>
    <path class="st1" d="M384.8,120.65l-1.33,7.72c-.21,1.21.07,1.95.85,2.24.78.28,2.2.36,4.26.21l-1.38,7.98c-5,.67-8.54.17-10.59-1.52-2.06-1.69-2.73-4.59-2.02-8.7l1.38-7.93h-3.99l1.49-8.46h3.99l.85-4.79,9.32-2.66-1.33,7.45h5.59l-1.54,8.46h-5.54Z"/>
    <path class="st1" d="M413.15,112.18h8.81l-4.71,26.62h-8.81l.48-2.73c-2.02,2.32-4.61,3.48-7.77,3.48-2.87,0-5.08-1-6.62-3.01-1.54-2-2.01-4.82-1.41-8.44l2.81-15.92h8.81l-2.61,14.79c-.21,1.42-.02,2.48.59,3.17.61.69,1.51,1.04,2.73,1.04,1.35,0,2.48-.41,3.39-1.22.91-.82,1.51-2.02,1.79-3.62v.07l2.52-14.23Z"/>
    <path class="st1" d="M435.02,117.17c.82-1.8,2.02-3.17,3.62-4.11,1.6-.94,3.39-1.41,5.38-1.41l-1.65,9.79c-2.02-.28-3.96.07-5.8,1.06-1.84.99-2.98,2.75-3.43,5.27l.16-.89-2.11,11.92h-8.81l4.71-26.62h8.81l-.88,4.99Z"/>
    <path class="st1" d="M459.11,111.44c4.01,0,7.15,1.36,9.42,4.07,2.27,2.71,3.05,6.02,2.34,9.93-.14,1.06-.44,2.16-.91,3.3h-18.26c.5,2.17,2.2,3.25,5.11,3.25,2.13,0,3.89-.64,5.27-1.92l5.64,5.16c-3.09,2.87-6.96,4.31-11.6,4.31s-8.08-1.4-10.41-4.21c-2.32-2.8-3.15-6.26-2.48-10.38.64-3.9,2.45-7.13,5.43-9.69s6.46-3.83,10.43-3.83ZM452.78,122.56h10.06c-.18-2.45-1.58-3.67-4.2-3.67s-4.58,1.22-5.86,3.67Z"/>
    <path class="st1" d="M476.09,139.38c-.96,0-1.71-.35-2.26-1.04s-.74-1.52-.56-2.48c.18-.99.64-1.81,1.38-2.45.75-.64,1.63-.96,2.66-.96.96,0,1.72.35,2.29,1.04s.76,1.52.59,2.48c-.18.99-.64,1.81-1.38,2.45-.75.64-1.65.96-2.71.96Z"/>
    <path class="st1" d="M519.6,111.49c2.83,0,5.05.98,6.64,2.93,1.59,1.95,2.13,4.56,1.59,7.82l-2.92,16.56h-4.6l2.89-16.39c.35-2.09.1-3.7-.75-4.82-.86-1.12-2.19-1.68-4.01-1.68-1.96,0-3.66.65-5.09,1.94-1.43,1.29-2.39,3.29-2.89,5.98l-2.58,14.97h-4.6l2.89-16.39c.35-2.09.13-3.7-.67-4.82-.8-1.12-2.07-1.68-3.82-1.68-1.96,0-3.71.65-5.24,1.96-1.53,1.3-2.53,3.28-2.99,5.92v-.05s-2.66,15.07-2.66,15.07h-4.59l4.72-26.62h4.6l-.57,3.2c2.27-2.6,5.06-3.89,8.39-3.89,3.58,0,5.95,1.54,7.12,4.63,2.41-3.09,5.45-4.63,9.14-4.63Z"/>
    <path class="st1" d="M558.21,112.18h4.59l-4.72,26.62h-4.59l.67-3.78c-2.77,2.98-6.32,4.47-10.65,4.47-3.8,0-6.79-1.45-8.97-4.36-2.18-2.91-2.92-6.32-2.21-10.22.71-4.08,2.5-7.34,5.38-9.77,2.87-2.43,6.12-3.65,9.74-3.65,2.2,0,4.17.48,5.89,1.45,1.73.96,3.06,2.34,4,4.13l.87-4.88ZM538.54,132.2c1.51,1.88,3.61,2.82,6.31,2.82s5.08-.88,7.16-2.64c2.08-1.76,3.35-4,3.81-6.7.57-3.01.04-5.38-1.57-7.11-1.62-1.73-3.75-2.6-6.41-2.6-2.52,0-4.83.82-6.92,2.48s-3.39,3.93-3.89,6.84c-.5,2.73,0,5.04,1.52,6.92Z"/>
  </g>
</svg>