<svg viewBox="0 0 1000 200" xmlns="http://www.w3.org/2000/svg">
  <path fill="#185ADB" d="M137.39,164.75H67.82l-9.35,29.42H11.65L75.4,6.75h54.63l63.75,187.42h-47.05L137.39,164.75z M124.52,124.53l-21.99-68.81l-21.91,68.81L124.52,124.53z"/>
  <path fill="#185ADB" d="M202.98,133.64V6.75h42.83v123.14c0,14.18,6.67,26.21,29.42,26.21c22.76,0,29.42-12.03,29.42-26.21V6.75h42.83v126.89c0,40.15-31.03,64.29-72.26,64.29C234.02,197.93,202.98,173.8,202.98,133.64z"/>
  <path fill="#185ADB" d="M504.19,47.98H456v146.2h-42.83V47.98h-48.2V6.75h139.23V47.98z"/>
  <path fill="#185ADB" d="M702.27,163.14l62.91-65.36c10.96-11.26,19-22.22,19-33.18c0-11.8-7.51-19.85-20.08-19.85c-13.1,0-22.53,8.58-27.58,20.38l-36.17-21.15C712.38,16.18,737.59,3,763.57,3c33.48,0,63.44,21.99,63.44,59.69c0,22.53-12.03,41.76-29.19,58.92l-31.03,31.34h62.91v41.22H702.27V163.14z"/>
  <path fill="#185ADB" d="M989,164.22h-18.77v29.96h-43.37v-29.96h-85.13V124.6L901.41,6.83h46.05L887.77,124.6h39.08V84.45h43.37v40.15H989V164.22z"/>
  <path fill="#185ADB" d="M601.58,3c-53.79,0-97.47,42.3-97.47,97.47s43.68,97.47,97.47,97.47s97.47-42.3,97.47-97.47S655.45,3,601.58,3z M650.09,128.13c-0.46,2.61-1.15,5.13-1.84,7.66c-0.23,0.92-0.61,1.84-1.15,2.61c-1.3,1.84-2.84,1.69-3.75-0.38c-1.76-3.6,0-7.2,0.15-10.88c0-0.38,0.61-0.84,1-1.23c1.92-1.61,3.83-3.22,6.51-5.52C650.62,123.38,650.55,125.75,650.09,128.13z M652.15,95.03c-2.84,5.21-7.36,8.81-11.88,12.34c-5.9,4.6-6.82,7.36-4.83,14.41c0.31,1.23,0.69,2.38,0.92,3.6c0.92,3.98-0.38,6.9-3.98,8.97c-1.23,0.69-2.38,1.46-3.6,2.22c0.69,1.15,1.23,1.92,1.61,2.84c1.15,2.53,0.77,5.52-1.46,6.59c-3.45,1.69-4.75,4.98-6.44,7.82c-1.84,3.06-4.06,5.06-7.36,5.98c-2.61,0.77-5.29,1.3-8.05,1.69c-3.37,0.46-6.28-1.99-6.74-5.36c-0.08-0.54,0.15-1.23-0.15-1.53c-4.75-5.21-3.75-13.03-8.28-18.39c-2.45-2.91-2.45-6.51-0.77-9.73c2.3-4.52,1.92-8.35-1.23-12.26c-2.22-2.76-2.76-6.28-2.45-9.81c0.15-1.38-0.23-1.69-1.61-2.07c-1.61-0.46-2.91-1.69-4.44-2.45c-1.07-0.46-2.3-0.84-3.45-0.84c-2.07,0.08-4.14,0.46-6.21,0.69c-0.77,0.08-1.69-0.15-2.3,0.15c-5.13,2.61-8.81-0.38-12.41-3.37c-2.38-1.99-4.44-4.29-6.82-6.28c-1.99-1.61-2.22-3.45-1.23-5.59c0.46-1,0.92-1.92,1.46-2.84c1.07-1.92,1.23-3.52-0.61-5.21c-1.69-1.53-1.76-3.52-0.84-5.59c1.61-3.45,4.06-6.21,7.36-8.12c1.46-0.84,2.15-1.92,2.45-3.68c0.38-1.84,1.76-3.45,2.76-5.13c0.38-0.61,1.07-1.15,1.3-1.84c1.07-2.99,3.07-4.06,6.13-3.6c1.69,0.23,3.6,0,5.29-0.31c4.83-0.77,9.65-1.99,14.56-2.53c3.68-0.38,5.29,1.92,5.44,6.82c3.22,1.3,6.44,2.68,9.88,4.14c1.99-3.22,3.37-3.83,7.05-2.76c4.14,1.23,8.05,3.14,12.57,2.99c1.23-0.08,2.99,1.69,3.6,2.99c1.3,2.76,2.15,5.82,2.84,8.81c1.07,4.6,1.92,9.12,6.44,11.95c1.46,0.92,2.38,2.84,3.14,4.52c1.07,2.07,2.45,2.68,4.52,1.69c2.3-1.07,4.52-2.3,6.82-3.45C654.15,87.06,654.53,90.66,652.15,95.03z"/>
</svg>
